<svg width="48" height="48" viewBox="0 0 48 48" fill="none" xmlns="http://www.w3.org/2000/svg">
<path d="M27 39H26C20.344 39 17.514 39 15.758 37.242C14 35.486 14 32.656 14 27V23M14 23V21M14 23H27" stroke="#084739" stroke-width="3" stroke-linecap="round" stroke-linejoin="round"/>
<path d="M27 23C27 20.644 27 19.464 27.702 18.732C28.408 18 29.54 18 31.8 18H34.2C36.462 18 37.594 18 38.296 18.732C39 19.464 39 20.644 39 23C39 25.356 39 26.536 38.296 27.268C37.596 28 36.462 28 34.2 28H31.8C29.538 28 28.406 28 27.702 27.268C26.998 26.536 27 25.356 27 23ZM27 39C27 36.644 27 35.464 27.702 34.732C28.408 34 29.54 34 31.8 34H34.2C36.462 34 37.594 34 38.296 34.732C39 35.464 39 36.644 39 39C39 41.356 39 42.536 38.296 43.268C37.596 44 36.462 44 34.2 44H31.8C29.538 44 28.406 44 27.702 43.268C26.998 42.536 27 41.356 27 39Z" stroke="#084739" stroke-width="3"/>
<path d="M14 4V16M20 10H8" stroke="#084739" stroke-width="3" stroke-linecap="round" stroke-linejoin="round"/>
</svg>
